optRun
version=1
nRows=25
nColumns=21
inDegrees=no
endheader
time	r_shoulder_elev	r_elbow_flex	r_shoulder_elev_u	r_elbow_flex_u	TRIlong.activation	TRIlong.fiber_length	TRIlat.activation	TRIlat.fiber_length	TRImed.activation	TRImed.fiber_length	BIClong.activation	BIClong.fiber_length	BICshort.activation	BICshort.fiber_length	BRA.activation	BRA.fiber_length	DeltAnt.activation	DeltAnt.fiber_length	DeltPost.activation	DeltPost.fiber_length
        1.684654	       -0.825407	        2.793231	        1.517607	       -0.000196	        0.633068	        0.152598	        0.080589	        0.113405	        0.550982	        0.107254	        0.207348	        0.059375	        0.589979	        0.068091	        0.940668	        0.041457	        0.347738	        0.185587	        0.349087	        0.057643
        1.684943	       -0.824968	        2.793231	        1.520491	       -0.000129	        0.633292	        0.152604	        0.080596	        0.113405	        0.551007	        0.107254	        0.207261	        0.059372	        0.589631	        0.068077	        0.940578	        0.041457	        0.347916	        0.185576	        0.348900	        0.057673
        1.685231	       -0.824528	        2.793231	        1.523781	       -0.000046	        0.633517	        0.152611	        0.080603	        0.113405	        0.551032	        0.107254	        0.207174	        0.059368	        0.589282	        0.068064	        0.940488	        0.041458	        0.348093	        0.185565	        0.348714	        0.057703
        1.685520	       -0.824088	        2.793231	        1.527293	        0.000038	        0.633741	        0.152617	        0.080610	        0.113405	        0.551058	        0.107254	        0.207087	        0.059365	        0.588934	        0.068051	        0.940397	        0.041458	        0.348270	        0.185554	        0.348527	        0.057733
        1.685870	       -0.823553	        2.793231	        1.531626	        0.000113	        0.634013	        0.152625	        0.080618	        0.113404	        0.551089	        0.107254	        0.206981	        0.059361	        0.588512	        0.068035	        0.940288	        0.041458	        0.348484	        0.185541	        0.348302	        0.057769
        1.686219	       -0.823017	        2.793231	        1.535932	        0.000160	        0.634284	        0.152632	        0.080626	        0.113404	        0.551119	        0.107254	        0.206876	        0.059356	        0.588090	        0.068019	        0.940179	        0.041458	        0.348699	        0.185528	        0.348076	        0.057805
        1.686568	       -0.822479	        2.793231	        1.540175	        0.000179	        0.634556	        0.152640	        0.080635	        0.113404	        0.551150	        0.107254	        0.206770	        0.059352	        0.587668	        0.068003	        0.940069	        0.041458	        0.348913	        0.185515	        0.347850	        0.057842
        1.687662	       -0.820787	        2.793231	        1.553006	        0.000117	        0.635407	        0.152664	        0.080660	        0.113404	        0.551246	        0.107253	        0.206439	        0.059339	        0.586345	        0.067952	        0.939725	        0.041458	        0.349586	        0.185473	        0.347141	        0.057956
        1.688479	       -0.819515	        2.793231	        1.562092	       -0.000026	        0.636043	        0.152683	        0.080680	        0.113404	        0.551317	        0.107253	        0.206192	        0.059329	        0.585357	        0.067914	        0.939467	        0.041458	        0.350088	        0.185442	        0.346612	        0.058042
        1.689295	       -0.818236	        2.793231	        1.570765	       -0.000199	        0.636679	        0.152701	        0.080699	        0.113404	        0.551388	        0.107253	        0.205944	        0.059319	        0.584367	        0.067876	        0.939209	        0.041458	        0.350590	        0.185411	        0.346082	        0.058128
        1.690112	       -0.816950	        2.793231	        1.579068	       -0.000357	        0.637315	        0.152720	        0.080718	        0.113404	        0.551459	        0.107253	        0.205696	        0.059309	        0.583376	        0.067838	        0.938950	        0.041458	        0.351093	        0.185379	        0.345552	        0.058215
        1.690928	       -0.815658	        2.793230	        1.587053	       -0.000471	        0.637952	        0.152739	        0.080737	        0.113404	        0.551530	        0.107253	        0.205448	        0.059298	        0.582384	        0.067799	        0.938690	        0.041459	        0.351596	        0.185347	        0.345021	        0.058302
        1.691892	       -0.814123	        2.793230	        1.596134	       -0.000534	        0.638704	        0.152761	        0.080760	        0.113404	        0.551614	        0.107253	        0.205155	        0.059286	        0.581212	        0.067754	        0.938383	        0.041459	        0.352190	        0.185309	        0.344393	        0.058405
        1.692856	       -0.812580	        2.793229	        1.604910	       -0.000519	        0.639457	        0.152784	        0.080783	        0.113403	        0.551697	        0.107253	        0.204861	        0.059274	        0.580038	        0.067708	        0.938075	        0.041459	        0.352785	        0.185271	        0.343765	        0.058509
        1.693820	       -0.811029	        2.793229	        1.613204	       -0.000463	        0.640210	        0.152807	        0.080806	        0.113403	        0.551780	        0.107252	        0.204566	        0.059262	        0.578862	        0.067662	        0.937765	        0.041459	        0.353381	        0.185233	        0.343135	        0.058614
        1.694784	       -0.809470	        2.793228	        1.621257	       -0.000382	        0.640963	        0.152830	        0.080829	        0.113403	        0.551863	        0.107252	        0.204271	        0.059249	        0.577685	        0.067616	        0.937455	        0.041459	        0.353977	        0.185194	        0.342505	        0.058719
        1.695749	       -0.807903	        2.793228	        1.629315	       -0.000293	        0.641717	        0.152854	        0.080851	        0.113403	        0.551945	        0.107252	        0.203976	        0.059237	        0.576506	        0.067569	        0.937144	        0.041459	        0.354573	        0.185156	        0.341874	        0.058825
        1.698159	       -0.803950	        2.793227	        1.649421	       -0.000149	        0.643605	        0.152914	        0.080908	        0.113403	        0.552151	        0.107252	        0.203236	        0.059205	        0.573552	        0.067452	        0.936362	        0.041460	        0.356067	        0.185058	        0.340292	        0.059091
        1.700004	       -0.800894	        2.793227	        1.664973	       -0.000179	        0.645051	        0.152961	        0.080952	        0.113402	        0.552307	        0.107252	        0.202668	        0.059181	        0.571286	        0.067361	        0.935759	        0.041460	        0.357211	        0.184982	        0.339078	        0.059298
        1.701493	       -0.798404	        2.793227	        1.677426	       -0.000259	        0.646221	        0.152999	        0.080987	        0.113402	        0.552432	        0.107251	        0.202208	        0.059161	        0.569452	        0.067287	        0.935271	        0.041461	        0.358137	        0.184921	        0.338095	        0.059465
        1.702983	       -0.795897	        2.793226	        1.689798	       -0.000314	        0.647391	        0.153039	        0.081023	        0.113402	        0.552557	        0.107251	        0.201748	        0.059140	        0.567614	        0.067212	        0.934779	        0.041461	        0.359064	        0.184858	        0.337111	        0.059634
        1.704472	       -0.793370	        2.793226	        1.702201	       -0.000311	        0.648562	        0.153078	        0.081058	        0.113402	        0.552681	        0.107251	        0.201286	        0.059120	        0.565773	        0.067137	        0.934286	        0.041461	        0.359992	        0.184796	        0.336124	        0.059805
        1.705962	       -0.790825	        2.793226	        1.714702	       -0.000267	        0.649735	        0.153119	        0.081093	        0.113401	        0.552805	        0.107251	        0.200823	        0.059099	        0.563928	        0.067062	        0.933790	        0.041461	        0.360921	        0.184732	        0.335136	        0.059976
        1.707452	       -0.788262	        2.793225	        1.727317	       -0.000221	        0.650908	        0.153160	        0.081129	        0.113401	        0.552928	        0.107251	        0.200359	        0.059078	        0.562080	        0.066986	        0.933293	        0.041462	        0.361851	        0.184669	        0.334146	        0.060149
        1.709214	       -0.785204	        2.793225	        1.742391	       -0.000203	        0.652299	        0.153209	        0.081170	        0.113401	        0.553073	        0.107250	        0.199809	        0.059053	        0.559889	        0.066895	        0.932701	        0.041462	        0.362953	        0.184593	        0.332971	        0.060355
